<?xml version="1.0" standalone="no"?>
<!DOCTYPE svg PUBLIC "-//W3C//DTD SVG 20010904//EN"
 "http://www.w3.org/TR/2001/REC-SVG-20010904/DTD/svg10.dtd">
<svg version="1.0" xmlns="http://www.w3.org/2000/svg"
 width="600.000000pt" height="600.000000pt" viewBox="0 0 600.000000 600.000000"
 preserveAspectRatio="xMidYMid meet">
<metadata>
Created by potrace 1.14, written by Peter Selinger 2001-2017
</metadata>
<g transform="translate(0.000000,600.000000) scale(0.100000,-0.100000)"
fill="#000000" stroke="none">
<path d="M178 5982 c-16 -9 -28 -20 -28 -24 0 -5 -5 -8 -10 -8 -6 0 -40 -14
-75 -32 l-65 -31 0 -695 0 -695 130 5 c72 3 132 7 134 9 2 2 6 13 8 24 1 11 9
26 16 33 6 7 12 22 12 33 0 10 5 19 11 19 8 0 10 14 6 42 -4 27 -2 37 4 27 6
-10 9 -4 9 22 0 20 7 42 15 49 10 9 15 9 15 1 0 -6 4 -11 9 -11 4 0 6 12 3 28
-5 24 -4 26 12 13 15 -13 16 -11 12 26 -3 22 -10 52 -15 67 -13 33 -8 33 14 0
30 -47 67 -212 66 -301 -1 -90 1 -92 56 -72 21 7 32 18 36 37 3 15 11 41 18
57 7 17 12 33 11 38 -1 4 3 7 8 7 6 0 10 13 10 28 0 32 22 79 68 141 19 26 32
37 32 28 0 -10 3 -17 8 -17 10 0 42 58 43 78 0 11 2 12 6 5 8 -20 20 -15 27
11 4 15 17 28 35 34 17 6 38 20 48 31 9 12 24 21 33 21 11 0 12 3 3 8 -8 5 -9
13 -3 22 7 10 10 11 10 3 0 -7 7 -13 15 -13 8 0 15 5 15 11 0 8 6 7 16 -2 9
-8 27 -12 39 -11 25 3 38 -18 28 -45 -4 -11 -3 -14 6 -9 8 5 16 -3 24 -23 6
-17 15 -31 20 -31 4 0 5 5 2 10 -3 6 -2 10 4 10 5 0 12 -6 14 -12 4 -10 6 -10
6 0 1 7 -12 26 -29 42 -31 31 -42 52 -14 29 13 -10 17 -10 24 1 6 10 9 8 13
-6 4 -16 5 -15 6 4 0 13 -6 40 -15 59 -16 33 -16 35 4 49 11 8 23 28 27 44 4
17 12 30 20 30 15 0 17 47 3 56 -11 7 -52 -11 -81 -35 -12 -10 -21 -12 -25 -5
-9 14 -43 14 -60 1 -7 -5 -15 -7 -18 -4 -9 8 15 74 32 87 7 7 14 23 14 36 0
12 5 26 11 29 6 4 14 16 18 27 5 13 18 22 35 24 26 3 27 2 13 -14 -20 -22 -6
-55 14 -35 7 7 14 21 15 30 1 10 4 25 6 33 3 8 3 12 1 8 -8 -14 -25 -8 -20 6
4 10 1 13 -9 9 -7 -3 -14 -11 -14 -19 0 -8 -4 -14 -10 -14 -5 0 -10 7 -10 15
0 8 4 15 8 15 5 0 15 19 22 43 8 23 17 47 22 53 4 6 4 14 0 18 -4 4 5 2 20 -4
40 -19 61 -7 47 24 -10 20 -9 30 5 50 9 14 16 31 16 39 0 7 9 30 20 51 10 22
17 43 14 47 -7 13 19 49 36 49 9 0 23 9 33 21 18 20 21 20 97 4 32 -7 69 20
52 37 -7 7 -12 20 -12 31 0 27 34 17 38 -11 4 -27 8 -27 54 1 27 17 34 27 28
37 -5 8 -7 17 -4 21 2 4 -7 10 -21 13 -29 7 -34 25 -7 27 9 1 4 5 -13 9 -16 4
-316 8 -665 9 -582 0 -637 -1 -662 -17z m657 -258 c16 -40 51 -73 77 -74 27 0
27 -22 -1 -65 -40 -61 -64 -84 -91 -87 -23 -3 -25 0 -25 42 0 44 -1 46 -50 72
-32 17 -67 27 -96 27 -49 1 -70 20 -44 41 19 16 177 80 197 80 11 0 24 -14 33
-36z m-15 -294 c0 -33 -25 -52 -58 -43 -30 7 -28 17 11 47 41 33 47 32 47 -4z
m88 -202 l11 -23 7 22 c8 29 24 20 17 -10 -9 -33 -30 -60 -38 -48 -4 7 -16 -1
-32 -19 -30 -36 -42 -38 -36 -7 3 13 18 32 35 41 21 13 27 21 19 29 -13 13
-15 37 -3 37 5 0 14 -10 20 -22z m-188 2 c0 -5 -4 -10 -10 -10 -5 0 -10 5 -10
10 0 6 5 10 10 10 6 0 10 -4 10 -10z m-20 -40 c-6 -11 -16 -20 -22 -20 -6 0
-3 9 7 20 10 11 20 20 22 20 2 0 -1 -9 -7 -20z m260 -50 c0 -13 -1 -13 -10 0
-5 8 -10 22 -10 30 0 13 1 13 10 0 5 -8 10 -22 10 -30z m-17 -33 c-3 -5 -10
-4 -15 1 -6 6 -7 16 -3 22 6 9 9 9 16 -1 4 -7 5 -17 2 -22z m-43 19 c0 -3 -4
-8 -10 -11 -5 -3 -10 -1 -10 4 0 6 5 11 10 11 6 0 10 -2 10 -4z m-300 -211 c0
-8 -6 -15 -13 -15 -8 0 -14 7 -14 15 0 8 6 15 14 15 7 0 13 -7 13 -15z m10
-59 c0 -3 -4 -8 -10 -11 -5 -3 -10 -1 -10 4 0 6 5 11 10 11 6 0 10 -2 10 -4z
m-20 -39 c0 -2 -12 -27 -28 -57 -31 -62 -54 -71 -59 -23 -4 36 15 83 26 64 5
-8 13 -7 27 4 17 13 34 19 34 12z"/>
<path d="M2735 5992 c-3 -3 -15 -6 -27 -7 -14 -1 -22 -9 -23 -23 -1 -12 -12
-35 -26 -50 -13 -15 -39 -45 -59 -67 -28 -32 -24 -30 20 11 30 29 83 72 118
97 59 43 61 46 32 45 -16 -1 -32 -3 -35 -6z m-5 -25 c0 -2 -12 -14 -27 -28
l-28 -24 24 28 c23 25 31 32 31 24z"/>
<path d="M2859 5943 c-77 -80 -124 -141 -206 -263 -84 -126 -116 -187 -107
-202 4 -6 3 -9 -2 -5 -5 3 -14 -6 -21 -19 -18 -39 5 -19 129 113 170 180 248
243 395 317 77 38 132 51 78 17 -38 -24 -170 -160 -162 -168 4 -3 29 4 58 16
36 16 78 24 143 27 l91 4 -84 -20 c-159 -37 -282 -110 -404 -240 -125 -133
-249 -317 -323 -479 -41 -89 -43 -106 -6 -62 25 30 29 32 41 17 10 -11 10 -16
2 -16 -7 0 -9 -5 -5 -11 3 -6 2 -14 -3 -18 -11 -7 -185 -352 -181 -357 2 -2
53 71 112 160 198 298 366 469 579 589 85 48 103 55 92 37 -3 -6 1 -7 9 -4 9
3 14 10 11 14 -5 9 109 53 165 64 27 6 14 -4 -54 -43 -49 -28 -123 -77 -165
-108 -90 -67 -276 -254 -372 -373 -68 -85 -218 -327 -278 -450 l-32 -65 28 35
c15 19 44 55 63 81 77 104 191 237 256 299 56 53 219 189 294 244 8 6 -42 -45
-111 -114 -280 -281 -470 -553 -622 -895 -67 -150 -71 -159 -101 -275 -38
-142 -56 -262 -56 -364 l1 -91 23 90 c34 128 95 273 140 330 14 18 15 16 1
-23 -19 -57 -61 -277 -80 -425 -16 -127 -19 -367 -5 -432 8 -37 8 -36 8 22 -1
35 2 66 6 70 5 5 6 -40 4 -99 -2 -59 -3 -106 -2 -105 1 1 21 76 44 167 23 91
46 169 51 174 5 6 9 30 9 55 0 85 15 28 30 -117 l16 -147 7 142 c5 106 12 155
27 197 12 31 25 56 29 56 4 0 8 -32 9 -72 2 -39 7 -104 12 -144 8 -65 7 -83
-15 -159 -14 -46 -31 -99 -39 -117 l-14 -33 -3 50 c-1 28 -4 39 -6 27 -4 -23
14 -222 21 -229 4 -4 107 32 144 51 39 20 41 12 5 -28 -26 -28 -26 -29 -3 -11
14 11 31 28 38 38 7 9 36 39 64 67 37 37 48 54 43 67 -12 31 -35 147 -35 179
0 22 -8 36 -28 51 -21 15 -45 60 -87 157 -32 75 -59 136 -61 136 -2 0 0 -31 3
-69 3 -42 1 -75 -5 -87 -9 -15 -11 6 -12 91 0 61 3 120 6 132 6 22 7 21 31 -7
24 -29 63 -41 63 -20 0 6 4 10 8 10 10 0 48 -157 40 -165 -3 -3 -19 16 -37 42
-17 26 -31 43 -31 38 0 -13 25 -51 56 -85 12 -14 27 -45 32 -70 7 -31 10 -37
11 -19 1 33 -30 188 -64 315 -31 117 -31 119 3 99 21 -13 32 -33 50 -90 12
-40 22 -81 22 -89 0 -9 4 -16 8 -16 4 0 5 25 2 56 -6 55 -6 55 12 32 10 -13
18 -26 18 -30 0 -5 5 -8 10 -8 7 0 7 6 1 18 -17 32 6 42 94 42 l80 0 -3 -54
c-3 -43 2 -64 23 -107 18 -34 23 -55 16 -57 -6 -2 -11 -8 -11 -14 0 -6 24 -8
68 -4 37 4 91 3 120 -2 67 -12 74 -3 71 87 -1 39 0 73 3 76 7 8 73 -39 74 -53
1 -7 3 -15 4 -19 1 -5 2 -11 2 -14 -1 -3 10 -5 23 -3 14 1 25 -2 25 -7 0 -5
16 -9 35 -9 29 0 35 -4 35 -21 0 -11 4 -17 10 -14 6 4 18 1 26 -6 8 -6 18 -9
22 -5 4 4 -1 12 -11 17 -9 6 -17 15 -17 22 0 7 12 -1 26 -17 18 -20 22 -32 15
-39 -8 -8 -14 -8 -23 1 -19 19 -30 14 -18 -9 7 -11 9 -27 6 -35 -4 -11 0 -13
19 -8 15 4 25 2 25 -5 0 -6 -7 -11 -15 -11 -10 0 -15 -9 -14 -27 0 -31 17 -78
18 -53 1 13 2 13 11 0 5 -9 5 -17 -1 -21 -17 -10 2 -40 22 -34 24 8 43 -5 46
-30 2 -11 3 -72 5 -135 1 -63 4 -101 8 -85 6 29 6 28 13 -14 6 -32 18 -54 41
-77 19 -18 36 -31 38 -29 2 2 14 -5 28 -16 21 -16 22 -18 5 -13 -18 5 -18 4
-2 -6 9 -6 23 -8 30 -4 6 4 9 4 5 -1 -5 -5 1 -14 12 -22 11 -8 20 -20 20 -28
0 -7 8 -15 17 -17 12 -2 18 -14 18 -41 1 -20 -2 -37 -6 -37 -5 0 -25 14 -46
32 l-38 32 29 -32 c23 -24 26 -33 15 -37 -8 -3 -16 -15 -16 -28 -3 -36 -25
-67 -52 -74 -14 -3 -34 -12 -43 -20 -9 -8 -22 -12 -28 -8 -9 6 -9 2 -1 -13 18
-34 13 -77 -14 -116 -14 -20 -25 -47 -25 -60 0 -12 -6 -44 -14 -69 -13 -45
-13 -47 11 -62 22 -15 24 -21 17 -58 -4 -23 -8 -50 -8 -59 0 -23 -2 -23 -38 7
-16 14 -39 25 -51 25 -17 0 -19 -2 -8 -9 10 -7 12 -21 6 -57 -4 -27 -11 -57
-16 -66 -5 -10 -14 -39 -19 -65 -14 -70 -16 -80 -39 -170 -12 -45 -21 -93 -21
-107 0 -31 -32 -50 -70 -42 -15 3 -40 0 -55 -7 -22 -10 -25 -17 -22 -42 5 -31
-21 -174 -34 -189 -14 -16 -40 43 -54 121 -8 43 -20 137 -26 209 -11 118 -10
136 5 180 38 108 39 102 -5 90 -21 -5 -41 -7 -45 -3 -3 3 -8 57 -11 119 -3 72
-1 108 5 100 6 -9 12 19 16 85 l7 99 37 1 c20 1 41 8 48 17 6 9 15 16 19 16 4
0 2 -7 -5 -15 -10 -12 -7 -23 21 -58 18 -24 42 -50 54 -59 20 -15 23 -15 55
10 42 33 70 38 70 14 1 -15 2 -15 16 3 8 11 12 25 9 33 -2 7 2 15 9 18 23 9
28 33 5 27 -15 -4 -19 0 -19 18 0 19 -2 21 -10 9 -8 -13 -11 -12 -24 5 -19 25
-37 104 -30 136 l5 24 -12 -23 c-10 -18 -9 -34 4 -80 8 -31 15 -58 14 -59 -1
-1 -49 38 -105 87 -56 49 -121 99 -142 111 -22 13 -40 26 -40 29 0 4 -21 22
-47 40 -27 18 -66 49 -87 69 -21 20 -36 29 -33 20 4 -13 1 -16 -15 -11 -13 3
-19 1 -15 -5 3 -5 1 -10 -6 -10 -17 -2 -166 -67 -167 -73 0 -5 18 -9 57 -12 7
-1 14 -7 17 -15 3 -7 10 -13 16 -13 6 0 8 5 4 12 -4 7 -3 8 5 4 6 -4 9 -11 7
-15 -3 -4 20 -20 52 -34 74 -33 125 -72 129 -98 2 -14 -1 -18 -9 -13 -7 4 -6
-1 3 -12 9 -10 19 -28 23 -39 8 -20 29 -444 27 -520 -1 -22 8 -93 19 -159 11
-65 20 -138 20 -164 0 -44 0 -45 -20 -27 -11 10 -20 23 -20 29 0 7 -9 19 -20
29 -24 20 -165 210 -240 322 -29 44 -63 91 -75 105 -12 14 -41 57 -63 95 -36
61 -97 145 -76 105 25 -48 321 -516 398 -628 50 -73 121 -181 158 -240 59 -94
67 -111 62 -142 -7 -44 -17 -55 -34 -35 -19 23 -27 19 -40 -20 -10 -31 -14
-34 -43 -29 -18 3 -28 2 -22 -3 6 -4 17 -17 25 -27 14 -18 13 -19 -8 -13 -18
4 -22 2 -18 -10 5 -11 2 -13 -9 -9 -9 3 -14 2 -11 -3 3 -5 -5 -11 -19 -13 -21
-4 -23 -3 -13 9 9 11 9 16 -3 24 -19 12 -39 11 -39 -1 0 -18 -18 -11 -25 10
-6 20 -35 27 -49 13 -4 -5 -12 -8 -17 -8 -5 0 -9 -3 -9 -7 0 -5 0 -15 0 -23 0
-8 9 -15 20 -15 11 0 20 -4 20 -9 0 -5 -19 -9 -41 -9 -40 -1 -69 15 -69 37 0
6 -11 11 -24 11 -20 0 -23 -5 -23 -33 1 -45 -9 -57 -47 -57 -18 0 -36 -3 -39
-7 -10 -10 -58 -13 -52 -3 6 10 -32 20 -51 13 -21 -8 -7 -22 16 -16 11 3 20 0
20 -6 0 -7 -21 -11 -54 -11 -53 0 -56 2 -95 47 -23 27 -41 51 -41 56 0 4 12 8
28 8 19 1 14 4 -18 10 -25 5 -50 10 -55 11 -6 1 -12 11 -13 22 0 11 -8 26 -17
32 -8 6 -15 14 -15 18 0 4 -25 38 -55 75 -30 38 -55 73 -55 79 0 6 15 8 39 5
22 -3 41 -1 45 5 4 7 -12 13 -41 17 -27 4 -56 9 -65 11 -17 5 -148 166 -148
182 0 11 27 8 63 -7 16 -6 54 -11 85 -12 31 0 80 -4 107 -8 46 -8 64 -3 65 19
0 5 -200 40 -228 40 -7 0 -12 -7 -12 -15 0 -8 -6 -15 -14 -15 -15 0 -39 24
-31 32 3 3 7 15 10 26 3 16 0 19 -12 15 -11 -4 -14 -2 -9 5 5 8 2 10 -9 5 -12
-4 -13 -8 -5 -13 16 -10 3 -50 -16 -50 -10 0 -13 7 -8 24 5 21 1 26 -30 36
-20 6 -33 16 -30 22 4 6 9 7 13 0 3 -5 17 -12 31 -16 l25 -7 -23 20 c-14 12
-20 25 -16 32 4 7 3 10 -2 7 -5 -3 -15 0 -21 8 -8 8 -9 15 -3 19 6 3 10 1 10
-6 0 -7 3 -9 6 -6 4 4 -1 18 -11 33 l-17 27 73 -7 74 -6 -78 25 c-64 21 -75
28 -65 39 10 11 14 11 16 2 3 -14 97 -47 106 -38 14 13 4 32 -16 32 -13 1 -57
14 -98 30 -86 34 -96 36 -104 14 -9 -25 -31 -10 -28 18 4 34 -14 45 -22 13 -4
-14 -14 -25 -22 -25 -12 0 -15 6 -10 24 5 20 0 25 -36 39 -23 9 -39 19 -36 22
3 3 22 -2 43 -10 20 -9 39 -14 41 -12 3 2 -15 12 -40 21 -33 13 -66 41 -128
109 -45 51 -101 108 -123 127 -66 58 -130 124 -175 181 -134 171 -700 787
-848 924 -133 122 -176 155 -193 144 -8 -4 -34 -9 -59 -9 -75 -1 -77 -1 -74
-27 2 -20 0 -22 -12 -12 -7 6 -11 15 -8 20 3 5 -2 6 -10 3 -12 -4 -14 1 -11
27 3 18 -2 44 -12 60 -14 24 -15 33 -3 68 7 23 10 56 7 78 -5 32 -2 46 20 78
14 21 26 51 27 66 1 15 4 27 7 26 7 -2 216 198 221 211 2 4 7 6 11 4 5 -1 6 2
3 7 -4 5 5 18 19 30 15 11 27 29 28 41 1 12 6 19 14 16 7 -3 12 -2 10 2 -1 4
3 7 8 7 6 0 9 -3 7 -7 -1 -5 2 -8 8 -8 5 0 10 5 10 11 0 6 9 9 20 6 27 -7 45
18 33 45 -8 18 -4 27 21 51 28 26 27 26 -12 -4 -39 -30 -57 -49 -30 -33 7 4 8
3 4 -5 -4 -6 -11 -9 -17 -6 -5 3 -53 -27 -106 -68 -54 -40 -151 -111 -216
-156 l-117 -82 0 -220 0 -219 42 -48 c212 -235 470 -496 649 -653 104 -91 128
-118 75 -84 -14 10 -26 13 -26 9 0 -5 -4 -3 -9 5 -5 8 -17 16 -26 17 -9 1 -26
11 -38 21 -74 63 -96 84 -147 133 -99 96 -99 87 0 -13 52 -53 100 -104 107
-114 6 -10 16 -17 23 -15 6 1 8 -2 5 -8 -4 -7 2 -21 13 -33 12 -12 22 -26 24
-32 1 -5 15 -21 30 -34 16 -13 33 -33 40 -44 12 -24 -165 127 -292 247 -75 72
-85 78 -88 59 -2 -17 14 -43 60 -93 63 -71 91 -109 69 -96 -6 4 -11 2 -11 -3
0 -6 3 -11 8 -12 4 0 19 -3 34 -5 26 -4 33 3 29 29 -1 5 3 6 9 2 6 -4 9 -21 6
-41 -5 -31 -1 -38 67 -104 39 -38 69 -70 65 -70 -4 0 -37 25 -74 56 -36 31
-67 54 -70 52 -5 -6 113 -110 167 -146 43 -29 119 -104 89 -87 -87 49 -407
322 -647 552 l-183 175 0 -185 0 -184 46 -33 c87 -62 194 -150 192 -158 -4
-13 33 -73 42 -67 5 3 12 0 16 -6 5 -8 3 -9 -6 -4 -8 5 -11 3 -8 -6 3 -8 10
-13 15 -12 6 1 21 -10 34 -24 24 -26 24 -26 2 -14 -18 9 -23 9 -23 -1 0 -11
-17 -13 -72 -10 -40 3 -110 -1 -155 -8 l-83 -12 0 -82 0 -83 54 -12 c38 -8 83
-10 143 -4 89 8 103 8 161 -2 23 -4 32 -11 32 -26 0 -16 -4 -18 -17 -11 -13 8
-21 4 -36 -15 -15 -18 -26 -23 -43 -19 -13 4 -24 2 -24 -3 0 -10 23 -16 104
-27 40 -5 48 -4 42 7 -4 8 -2 7 6 -2 7 -9 24 -19 38 -23 19 -6 21 -5 10 3 -18
13 -3 13 25 1 13 -6 15 -9 5 -9 -8 -1 22 -20 68 -42 96 -48 195 -135 272 -239
29 -39 56 -68 60 -65 5 3 27 -19 50 -47 22 -29 46 -60 53 -68 72 -91 107 -156
51 -95 l-36 40 38 -55 c71 -103 235 -320 241 -320 3 0 1 6 -4 13 -75 95 -183
250 -178 255 4 4 11 -1 16 -11 6 -9 22 -29 36 -45 14 -15 30 -34 37 -42 6 -8
38 -37 71 -65 67 -56 165 -154 165 -165 0 -4 -19 -8 -42 -8 -35 -1 -47 4 -66
26 l-22 27 17 -32 c15 -27 24 -32 73 -38 100 -13 190 -57 273 -134 39 -37 48
-54 22 -45 -28 11 -15 -14 19 -35 33 -21 47 -44 65 -108 l9 -32 -46 4 -47 5
55 -13 c30 -6 55 -16 55 -22 0 -5 4 -16 9 -23 4 -7 10 -47 12 -89 l5 -76 -57
5 c-57 5 -63 9 -102 64 -12 18 -13 18 -6 -1 3 -11 9 -71 12 -134 4 -90 2 -115
-9 -122 -14 -8 -44 20 -71 66 -10 17 -9 18 4 8 8 -7 19 -9 23 -5 5 4 5 2 2 -4
-8 -14 29 -69 37 -55 4 6 3 11 -2 11 -13 0 -34 88 -33 140 l1 45 -20 -50 c-11
-27 -20 -56 -20 -64 0 -11 -3 -11 -17 0 -9 8 3 -13 27 -46 24 -33 45 -61 45
-63 1 -1 37 7 81 19 59 15 96 19 144 15 83 -7 190 -38 246 -71 l44 -26 187 7
c132 4 211 12 265 25 99 25 110 24 139 -7 l24 -26 147 4 c80 1 150 6 154 11
10 9 -45 67 -64 67 -17 0 -38 24 -52 58 -9 20 -1 32 74 106 86 85 126 147 161
254 9 29 31 74 49 101 23 34 30 53 25 67 -8 20 -1 100 10 122 5 8 40 -37 100
-126 85 -129 94 -139 119 -135 21 4 24 2 12 -6 -11 -8 18 -10 105 -9 108 2
111 2 32 5 -73 3 -88 6 -83 18 3 8 1 15 -4 15 -6 0 -10 4 -10 9 0 19 473 150
544 151 31 0 36 -2 27 -14 -22 -26 -177 -115 -241 -138 -84 -30 -94 -54 -19
-44 64 8 63 8 -62 -72 -73 -47 -110 -63 -152 -70 -46 -7 -59 -6 -72 7 -9 9 -4
-4 12 -29 44 -71 76 -110 84 -105 8 6 83 -94 76 -101 -2 -3 -19 18 -37 46 -18
28 -35 49 -37 46 -3 -3 12 -29 33 -58 39 -55 63 -84 49 -60 -4 8 1 21 14 33
12 11 28 31 37 44 9 13 37 32 62 41 26 10 50 22 53 26 3 5 23 11 45 13 21 3
54 10 71 16 60 19 181 -38 256 -121 47 -52 62 -95 47 -134 -11 -29 -5 -36 33
-36 26 0 29 3 23 23 -16 54 -17 122 -1 141 8 11 16 18 18 15 2 -2 14 -37 28
-78 13 -40 29 -74 34 -74 6 -1 29 30 52 68 47 77 289 329 306 318 6 -4 7 -1 2
7 -6 10 -4 12 11 6 10 -4 15 -4 11 0 -9 10 13 35 24 28 5 -3 8 -1 7 4 -2 5 26
33 62 62 67 55 350 244 408 274 17 9 32 19 32 22 0 22 -325 -184 -465 -294
-74 -58 -92 -69 -105 -59 -13 10 -13 10 -3 -3 9 -12 1 -24 -47 -68 -73 -65
-85 -68 -19 -3 27 26 49 52 49 57 0 4 -13 -5 -29 -20 -17 -16 -41 -30 -55 -31
-14 -2 -30 -6 -35 -10 -6 -3 -11 -1 -11 5 0 6 10 14 22 19 12 4 17 11 11 14
-11 7 -60 -40 -51 -49 4 -3 -3 -15 -14 -26 -16 -16 -18 -22 -7 -29 8 -5 9 -9
4 -9 -14 0 -38 -57 -32 -74 3 -7 -5 -26 -17 -41 l-23 -28 -1 43 c-1 23 3 61
10 84 17 63 117 268 128 261 5 -3 12 0 16 6 4 8 3 9 -4 5 -17 -10 -15 -1 10
47 30 57 48 97 43 97 -3 0 -14 -18 -25 -40 -13 -25 -25 -38 -32 -34 -6 4 -8 3
-5 -3 4 -6 -4 -30 -17 -53 -13 -23 -26 -38 -30 -32 -3 5 -2 12 2 16 9 10 9 76
0 70 -4 -3 -6 -18 -4 -34 2 -17 0 -30 -5 -30 -17 0 -4 67 22 111 20 34 24 50
16 58 -8 8 -5 17 11 34 12 13 22 28 22 34 0 6 15 23 33 38 17 15 52 46 77 69
61 57 144 117 210 153 63 34 185 88 156 70 -68 -44 -179 -133 -221 -178 -49
-53 -49 -53 15 8 117 109 311 218 449 254 52 14 115 21 197 22 120 2 121 2
175 -31 l54 -33 -32 30 c-38 35 -111 57 -221 67 -52 4 -79 10 -70 15 7 5 26 9
42 9 26 0 28 2 21 28 -3 15 -16 45 -29 67 -22 39 -23 40 -75 38 -76 -4 -368
-68 -486 -107 -55 -19 -219 -84 -365 -146 -315 -133 -356 -150 -367 -149 -14
1 91 48 108 49 25 0 33 30 8 30 -12 0 -18 -4 -13 -11 4 -7 1 -10 -7 -7 -8 3
-14 11 -14 19 0 15 -24 17 -65 6 -34 -10 -10 2 230 109 412 183 512 217 820
280 74 15 137 29 140 31 2 2 -2 14 -10 26 -7 12 -29 51 -47 87 -59 116 -72
133 -177 240 -119 121 -253 274 -278 317 l-17 29 64 43 c35 23 79 61 98 84 41
51 59 84 23 42 -21 -25 -25 -27 -26 -11 0 11 -5 16 -14 13 -18 -7 -7 46 18 89
17 29 17 29 -1 4 -45 -62 -99 -123 -103 -119 -3 2 -23 -15 -44 -38 -38 -43
-66 -55 -66 -30 0 7 -7 22 -16 33 -14 18 -14 18 -3 -6 13 -29 4 -20 -35 33
-28 39 -90 75 -163 97 l-42 13 20 31 21 31 -29 -32 c-24 -27 -36 -32 -81 -35
-28 -2 -52 -1 -52 2 0 3 30 39 66 80 37 41 84 98 106 127 28 37 49 54 71 58
21 5 60 34 117 89 47 46 97 90 112 99 15 9 53 48 84 87 31 39 58 69 60 68 5
-6 -28 -132 -43 -162 -8 -17 -11 -26 -5 -21 24 23 80 145 101 220 24 87 60
175 72 175 3 0 10 -47 14 -105 11 -163 26 -140 25 37 -2 150 -1 154 29 225 18
42 28 79 24 89 -4 11 -3 15 4 11 22 -14 142 405 130 451 -3 12 -5 10 -6 -5 -3
-59 -75 -307 -111 -381 -44 -92 -45 -96 -29 -86 13 8 4 -29 -18 -66 l-14 -25
6 30 c4 17 7 39 7 50 2 83 43 447 63 565 35 209 45 327 45 546 0 270 -45 583
-104 719 -14 33 -26 70 -26 83 0 22 -44 107 -132 255 -28 46 -38 74 -35 89 4
12 2 27 -2 32 -17 21 -71 168 -65 177 3 5 -428 9 -1078 9 l-1084 0 -55 -57z
m2279 -308 c-3 -3 -9 2 -12 12 -6 14 -5 15 5 6 7 -7 10 -15 7 -18z m-996 -72
c69 -61 150 -153 200 -228 29 -45 32 -52 11 -29 -51 56 -165 155 -210 181 -24
14 -66 28 -94 32 l-50 6 26 35 c21 29 37 41 62 49 1 1 26 -20 55 -46z m1013 1
c9 -62 1 -65 -11 -4 -6 28 -7 50 -3 50 4 0 10 -21 14 -46z m12 -96 c-3 -8 -6
-5 -6 6 -1 11 2 17 5 13 3 -3 4 -12 1 -19z m-2654 -459 c-8 -8 -13 -7 -18 2
-5 8 -4 10 3 5 7 -4 12 -3 12 2 0 17 -13 22 -29 9 -14 -11 -14 -10 -2 6 13 16
16 16 30 3 11 -12 12 -19 4 -27z m582 -889 c-3 -5 -11 -10 -16 -10 -6 0 -7 5
-4 10 3 6 11 10 16 10 6 0 7 -4 4 -10z m24 -36 c-15 -18 -51 -15 -57 6 -5 13
-3 13 13 0 16 -13 19 -12 34 7 9 11 18 17 19 12 2 -6 -2 -16 -9 -25z m-392
-91 c-2 -16 -4 -3 -4 27 0 30 2 43 4 28 2 -16 2 -40 0 -55z m1003 7 c0 -5 -4
-10 -10 -10 -5 0 -10 -7 -10 -15 0 -17 26 -21 33 -5 3 6 4 5 3 -2 -4 -19 -35
-22 -42 -4 -3 9 -4 23 0 31 6 17 26 21 26 5z m1500 -187 c34 -111 66 -360 48
-378 -2 -2 -15 39 -27 93 -13 53 -34 130 -48 171 -23 71 -53 238 -53 291 1 30
49 -77 80 -177z m-4900 53 c0 -2 -7 -7 -16 -10 -8 -3 -12 -2 -9 4 6 10 25 14
25 6z m2268 -284 c-10 -12 -10 -14 0 -8 7 4 12 1 12 -9 0 -9 -4 -13 -10 -10
-5 3 -10 1 -10 -4 0 -6 5 -11 12 -11 6 0 9 -2 7 -5 -3 -2 -22 1 -42 7 -26 8
-36 16 -32 26 3 7 5 23 6 35 0 12 3 16 6 9 2 -6 9 -10 13 -7 5 3 12 0 16 -6 4
-7 3 -9 -4 -5 -18 11 -22 -10 -7 -30 11 -13 13 -14 10 -3 -3 9 1 22 10 29 8 7
16 31 17 54 l1 41 4 -43 c3 -26 -1 -50 -9 -60z m-41 66 c-3 -8 -6 -5 -6 6 -1
11 2 17 5 13 3 -3 4 -12 1 -19z m190 -64 c-3 -3 -12 -4 -19 -1 -8 3 -5 6 6 6
11 1 17 -2 13 -5z m76 -21 c-7 -2 -19 -2 -25 0 -7 3 -2 5 12 5 14 0 19 -2 13
-5z m-150 -10 c-7 -2 -19 -2 -25 0 -7 3 -2 5 12 5 14 0 19 -2 13 -5z m2463
-79 c4 -35 3 -36 -7 -14 l-11 25 -14 -30 c-8 -16 -12 -21 -8 -10 3 11 8 35 11
53 7 41 22 29 29 -24z m4 -274 c-16 -92 -56 -155 -182 -283 -134 -137 -132
-126 8 30 57 65 113 136 124 158 20 42 48 194 52 280 1 28 4 13 6 -35 1 -47
-2 -114 -8 -150z m-2155 201 c7 -13 -27 -31 -59 -31 -27 0 -41 14 -31 30 8 13
82 13 90 1z m115 -21 c0 -5 -4 -10 -9 -10 -6 0 -13 5 -16 10 -3 6 1 10 9 10 9
0 16 -4 16 -10z m360 -20 c16 -16 30 -33 31 -37 3 -33 7 -51 13 -73 6 -20 5
-22 -4 -10 -8 12 -10 8 -8 -20 2 -29 -1 -36 -17 -38 -14 -2 -26 8 -40 35 -11
21 -24 41 -29 44 -4 4 -10 31 -12 62 -4 47 -2 56 13 60 10 3 19 5 20 6 1 0 16
-12 33 -29z m-455 -11 c-4 -5 -13 -9 -22 -9 -13 0 -13 3 -3 15 13 15 35 11 25
-6z m272 -53 c-12 -14 -37 -11 -37 5 0 4 7 6 15 3 8 -4 15 -1 15 6 0 6 4 8 10
5 6 -4 5 -11 -3 -19z m-245 -31 c9 4 14 13 11 21 -7 19 16 18 39 -3 25 -22 23
-49 -4 -57 -77 -20 -178 16 -162 58 10 25 56 24 79 -2 13 -15 26 -21 37 -17z
m1118 -4 c0 -18 -32 -41 -56 -41 -31 0 -32 27 -1 40 29 12 57 12 57 1z m140
-1 c0 -5 -4 -10 -10 -10 -5 0 -10 5 -10 10 0 6 5 10 10 10 6 0 10 -4 10 -10z
m-115 -40 c3 -6 -1 -13 -10 -16 -19 -8 -30 0 -20 15 8 14 22 14 30 1z m-140
-92 c4 -15 6 -31 5 -35 -2 -13 -44 -2 -57 15 -11 13 -10 19 4 34 16 18 16 18
0 12 -9 -3 -17 -2 -17 3 0 34 57 9 65 -29z m121 37 c7 -17 54 -21 54 -3 0 7 6
6 18 -4 9 -8 25 -18 35 -21 24 -9 22 -27 -4 -27 -11 0 -29 -5 -40 -10 -24 -13
-116 -2 -134 16 -7 8 -18 14 -24 14 -24 0 -9 18 27 33 48 20 61 20 68 2z
m-1689 -47 c-3 -8 -6 -5 -6 6 -1 11 2 17 5 13 3 -3 4 -12 1 -19z m1913 -29 c0
-6 -8 -9 -17 -7 -10 1 -22 0 -28 -4 -5 -3 -25 -3 -44 0 l-34 5 34 27 34 28 27
-20 c16 -10 28 -24 28 -29z m-339 -149 c29 -16 23 -42 -21 -85 -31 -31 -50
-40 -89 -45 -28 -3 -48 -3 -45 2 3 4 -2 8 -10 8 -10 0 -16 9 -17 23 0 12 -2
30 -4 39 -2 9 6 24 16 34 10 9 19 14 19 11 0 -3 12 1 28 9 32 16 95 18 123 4z
m-114 -146 c-3 -3 -12 -4 -19 -1 -8 3 -5 6 6 6 11 1 17 -2 13 -5z m323 -33 c0
-5 -5 -11 -12 -13 -6 -2 -8 -10 -4 -17 6 -9 11 -9 24 1 13 11 14 11 10 -2 -2
-8 -12 -16 -21 -18 -19 -4 -32 20 -23 43 6 16 26 21 26 6z m-4021 -155 c36
-35 89 -84 116 -108 211 -189 244 -221 239 -230 -5 -7 -2 -8 5 -3 8 4 28 -9
54 -36 22 -24 43 -43 46 -43 3 1 26 -19 51 -44 39 -39 40 -42 10 -19 -19 14
-125 86 -235 158 l-200 132 -60 90 c-69 103 -106 167 -98 167 3 0 35 -29 72
-64z m482 -169 c-10 -9 -11 -8 -5 6 3 10 9 15 12 12 3 -3 0 -11 -7 -18z m3009
-18 c0 -6 -4 -7 -10 -4 -5 3 -10 11 -10 16 0 6 5 7 10 4 6 -3 10 -11 10 -16z
m30 -3 c0 -3 -4 -8 -10 -11 -5 -3 -10 -1 -10 4 0 6 5 11 10 11 6 0 10 -2 10
-4z m1364 -49 c-3 -7 -17 -21 -32 -31 l-27 -19 28 30 c15 16 24 33 20 38 -5 4
-3 5 4 1 7 -4 10 -12 7 -19z m-1975 -54 c5 -4 -30 -43 -39 -43 -3 0 -4 16 -2
35 4 31 6 34 21 23 9 -7 18 -14 20 -15z m590 -44 c-18 -44 -22 -28 -7 27 9 37
13 43 16 26 2 -13 -2 -37 -9 -53z m-550 7 c12 -13 23 -33 24 -44 1 -16 4 -19
15 -10 10 9 20 4 45 -23 l32 -34 -31 28 c-27 25 -32 26 -44 12 -17 -20 -38 -4
-42 33 -2 16 -8 26 -16 24 -8 -1 -11 2 -8 7 4 5 2 12 -4 16 -5 3 -10 1 -10 -6
0 -7 -3 -10 -6 -6 -7 7 4 27 15 27 4 0 18 -11 30 -24z m411 14 c0 -5 -2 -10
-4 -10 -3 0 -8 5 -11 10 -3 6 -1 10 4 10 6 0 11 -4 11 -10z m-59 -493 c-13
-13 -15 11 -4 40 7 16 8 15 11 -6 2 -13 -1 -28 -7 -34z m894 34 c22 -4 39 -11
37 -17 -17 -65 -119 -333 -182 -479 -23 -55 -53 -130 -66 -167 -22 -66 -22
-68 -3 -68 19 0 19 -2 4 -30 -9 -17 -13 -36 -9 -42 5 -7 3 -8 -6 -3 -10 6 -12
4 -6 -11 4 -10 4 -15 0 -12 -8 9 -34 -23 -61 -74 -11 -21 -36 -60 -54 -88 -31
-46 -40 -52 -109 -74 -151 -48 -509 -116 -544 -103 -9 4 -19 14 -23 23 -6 15
-2 29 22 86 6 14 2 16 -27 11 -18 -3 -42 -10 -52 -15 -15 -8 -23 -6 -37 13
-24 31 -24 49 1 49 11 0 28 4 38 9 9 5 43 19 75 32 l58 22 78 161 c43 88 93
191 110 228 55 115 372 437 464 471 12 4 36 21 52 37 47 45 138 61 240 41z
m-919 -63 c-4 -29 -12 -59 -17 -67 -7 -11 -9 -2 -5 33 3 27 6 57 6 67 0 11 5
19 11 19 8 0 9 -16 5 -52z m-2715 25 c13 -16 12 -17 -3 -4 -10 7 -18 15 -18
17 0 8 8 3 21 -13z m50 -50 c13 -16 12 -17 -3 -4 -10 7 -18 15 -18 17 0 8 8 3
21 -13z m307 -337 c52 -61 80 -84 127 -107 41 -19 51 -27 30 -23 -26 4 -25 2
15 -19 25 -14 54 -35 65 -48 11 -12 14 -19 8 -15 -7 4 -13 5 -13 2 0 -9 79
-47 160 -77 104 -39 76 -36 -54 6 -60 19 -111 33 -113 31 -5 -5 161 -76 242
-103 39 -12 55 -20 36 -17 -25 5 -32 3 -26 -6 5 -8 2 -11 -11 -7 -11 3 -32 8
-49 11 -26 5 -25 3 10 -14 22 -10 47 -19 55 -19 13 -1 13 -2 0 -11 -10 -7 -11
-10 -2 -10 7 0 16 -8 19 -17 4 -10 17 -32 30 -49 32 -43 29 -54 -14 -55 -38
-1 -38 -1 17 -19 56 -18 45 -25 -21 -12 -30 6 -51 24 -128 117 -112 133 -171
202 -193 226 -9 9 -70 79 -135 156 -66 76 -128 145 -139 153 -10 8 1 -9 26
-38 91 -108 160 -204 160 -222 0 -10 13 -29 28 -42 41 -34 51 -54 19 -36 -13
7 -51 47 -84 88 -188 236 -184 230 -172 252 9 17 5 26 -27 62 -103 111 -119
132 -31 42 54 -56 128 -136 165 -180z m702 204 c18 -12 2 -12 -25 0 -13 6 -15
9 -5 9 8 0 22 -4 30 -9z m-457 -20 c-3 -11 -9 -20 -14 -20 -11 0 -11 3 -3 24
9 23 23 20 17 -4z m2041 -167 c-18 -81 -26 -103 -34 -98 -13 8 -12 38 2 85 15
46 42 57 32 13z m-1844 -123 c0 -19 -18 -19 -23 -1 -3 14 -1 18 9 14 8 -3 14
-9 14 -13z m1489 -50 c0 -11 -3 -10 -14 4 -8 11 -15 31 -14 45 1 26 1 26 14
-4 8 -16 14 -37 14 -45z m184 0 c-2 -30 -14 -94 -26 -143 -23 -83 -23 -87 -5
-81 24 7 88 -14 88 -29 0 -30 -43 -197 -51 -197 -13 0 -11 20 7 90 8 33 14 66
12 71 -8 24 -47 -30 -68 -91 -11 -36 -27 -69 -34 -75 -7 -5 -13 -14 -14 -20
-1 -5 -10 -11 -20 -13 -14 -2 -21 -18 -31 -70 -19 -98 -33 -146 -49 -157 -7
-6 -14 -20 -15 -33 -1 -12 -9 -25 -19 -28 -10 -3 -16 -9 -13 -14 4 -7 -15 -35
-59 -87 -11 -13 -27 -23 -35 -23 -13 0 -13 -2 -3 -9 22 -14 -56 -67 -155 -105
-92 -36 -255 -72 -273 -61 -6 4 -54 11 -107 16 -53 5 -98 11 -101 14 -12 11
16 25 68 33 l55 9 -59 8 c-54 7 -147 3 -221 -11 -28 -5 -36 0 -96 73 -36 43
-99 124 -142 180 -42 56 -112 144 -155 195 -99 118 -102 124 -65 104 16 -8 35
-22 42 -30 8 -9 20 -16 27 -16 8 0 14 -4 14 -10 0 -5 14 -17 31 -25 17 -9 28
-22 26 -29 -3 -7 4 -18 15 -25 11 -7 17 -18 15 -25 -3 -7 11 -30 30 -51 23
-25 31 -40 23 -45 -6 -4 8 -13 34 -20 33 -9 46 -18 46 -31 0 -27 121 -144 193
-187 36 -21 127 -32 127 -15 0 3 -11 21 -25 39 -14 18 -25 35 -25 38 0 12 -53
83 -78 103 l-27 23 33 0 c20 0 31 4 27 10 -3 6 -17 10 -31 10 -20 0 -24 4 -20
18 8 25 -36 72 -66 72 -25 0 -59 39 -36 41 7 0 2 5 -12 11 -21 9 -22 12 -7 15
16 4 16 6 -3 33 -29 40 -25 46 23 42 51 -5 59 -12 155 -127 116 -140 172 -204
241 -277 69 -73 70 -69 -9 -81 -14 -3 0 -5 30 -5 30 -1 73 6 95 14 22 8 74 27
115 41 140 49 282 179 350 319 16 35 30 67 30 72 0 5 9 21 20 34 13 17 18 36
16 56 -6 41 28 173 47 187 8 6 18 33 22 60 10 68 42 216 55 249 7 18 16 26 28
24 14 -3 17 -13 15 -58z m-1616 15 c-12 -24 -37 -35 -37 -16 0 23 14 41 30 41
16 0 17 -3 7 -25z m3828 5 c-16 -4 -41 -8 -55 -8 -22 0 -22 1 5 8 17 4 41 8
55 8 22 0 22 -1 -5 -8z m-3767 -73 c6 -5 12 -6 12 -2 0 13 32 -19 87 -87 29
-37 65 -80 79 -95 15 -15 54 -63 87 -105 33 -43 63 -76 67 -73 4 2 7 -1 7 -8
0 -7 4 -19 7 -28 6 -14 0 -15 -46 -8 -86 12 -133 38 -126 70 2 7 -6 15 -17 17
-11 2 -24 11 -28 18 -5 8 -12 12 -18 9 -5 -3 -6 1 -3 9 4 10 -1 18 -11 22 -9
4 -14 13 -11 20 3 8 2 14 -3 14 -4 0 -20 11 -35 25 l-27 25 28 1 c25 0 23 3
-21 24 -38 18 -44 24 -27 27 21 3 21 4 -8 39 -17 20 -28 38 -26 41 3 3 -4 13
-15 23 -11 10 -20 22 -20 27 0 11 50 7 68 -5z m2562 -91 c0 -3 -4 -8 -10 -11
-5 -3 -10 -1 -10 4 0 6 5 11 10 11 6 0 10 -2 10 -4z m-2605 -26 c13 -5 14 -9
5 -9 -8 0 -24 4 -35 9 -13 5 -14 9 -5 9 8 0 24 -4 35 -9z m2585 -4 c0 -3 -4
-8 -10 -11 -5 -3 -10 -1 -10 4 0 6 5 11 10 11 6 0 10 -2 10 -4z m17 -52 c-3
-3 -12 -4 -19 -1 -8 3 -5 6 6 6 11 1 17 -2 13 -5z m-1231 -162 c-11 -10 -15 4
-8 28 l7 25 3 -23 c2 -13 1 -26 -2 -30z m-156 -17 c0 -2 -7 -5 -15 -9 -9 -3
-15 0 -15 9 0 9 6 12 15 9 8 -4 15 -7 15 -9z m127 -1 c-3 -3 -12 -4 -19 -1 -8
3 -5 6 6 6 11 1 17 -2 13 -5z m-27 -24 c8 -5 11 -10 5 -10 -5 0 -17 5 -25 10
-8 5 -10 10 -5 10 6 0 17 -5 25 -10z m-190 -4 c0 -3 -4 -8 -10 -11 -5 -3 -10
-1 -10 4 0 6 5 11 10 11 6 0 10 -2 10 -4z m101 -19 c-13 -13 -26 -3 -16 12 3
6 11 8 17 5 6 -4 6 -10 -1 -17z m127 -10 c14 -16 11 -37 -11 -70 -9 -15 -17
-31 -17 -37 0 -5 -42 -53 -94 -105 -91 -92 -141 -125 -188 -125 -32 0 -215
181 -250 246 l-28 51 68 2 c267 8 354 15 442 36 71 17 66 17 78 2z m-318 -7
c13 -9 13 -10 0 -10 -8 0 -32 -3 -52 -6 -24 -4 -38 -3 -38 4 0 9 14 13 65 20
6 1 17 -3 25 -8z m1914 -222 c-5 -7 -2 -9 9 -5 8 3 21 0 27 -8 9 -11 8 -19 -5
-37 l-16 -23 7 29 c5 22 4 27 -6 21 -7 -4 -16 -2 -20 6 -8 12 -5 29 6 29 3 0
2 -5 -2 -12z m-2744 -39 c0 -5 -4 -9 -10 -9 -5 0 -10 7 -10 16 0 8 5 12 10 9
6 -3 10 -10 10 -16z m2728 -104 c-6 -14 -13 -23 -15 -21 -5 5 15 46 22 46 3 0
-1 -11 -7 -25z m-1488 -43 c0 -15 -85 -89 -108 -95 -19 -5 -23 -2 -20 16 2 14
19 30 48 45 24 12 40 22 35 23 -6 0 -1 4 10 9 26 11 35 12 35 2z m1580 -56 c0
-2 -8 -10 -17 -17 -16 -13 -17 -12 -4 4 13 16 21 21 21 13z m-56 -61 c-9 -14
-18 -25 -21 -25 -5 0 5 18 20 38 17 22 18 13 1 -13z m-2496 -70 c10 -10 -29
-35 -54 -35 -27 0 -39 26 -17 38 16 10 61 8 71 -3z m-174 -73 c3 -5 -1 -9 -9
-9 -8 0 -12 4 -9 9 3 4 7 8 9 8 2 0 6 -4 9 -8z"/>
<path d="M3870 2905 c-8 -9 -8 -15 -2 -15 12 0 26 19 19 26 -2 2 -10 -2 -17
-11z"/>
<path d="M3365 830 c4 -6 11 -8 16 -5 14 9 11 15 -7 15 -8 0 -12 -5 -9 -10z"/>
<path d="M3345 821 c3 -5 1 -12 -5 -16 -13 -8 -13 -25 0 -25 6 0 9 3 9 8 -3
20 3 23 19 11 14 -11 13 -10 -2 9 -19 22 -32 30 -21 13z"/>
<path d="M2840 290 c-8 -5 -10 -10 -5 -10 6 0 17 5 25 10 8 5 11 10 5 10 -5 0
-17 -5 -25 -10z"/>
<path d="M2409 5686 c-53 -35 -100 -69 -104 -76 -4 -6 15 5 43 24 27 20 54 36
61 36 6 0 11 5 11 10 0 6 5 10 12 10 6 0 8 -3 5 -7 -4 -3 -2 -12 5 -20 8 -11
7 -12 -5 -8 -8 4 -18 1 -22 -4 -3 -6 -11 -9 -16 -5 -5 3 -8 0 -7 -8 2 -7 -4
-12 -12 -10 -11 3 -10 -1 4 -17 17 -19 17 -20 -24 -46 -23 -15 -40 -29 -37
-32 9 -9 101 67 121 100 11 18 32 51 47 75 16 23 25 42 21 42 -4 -1 -50 -29
-103 -64z m65 19 c-4 -8 -13 -15 -22 -15 -13 0 -12 3 4 15 24 18 25 18 18 0z
m-44 -74 c0 -13 -26 -32 -33 -24 -8 7 11 33 24 33 5 0 9 -4 9 -9z"/>
<path d="M2278 5533 c6 -2 18 -2 25 0 6 3 1 5 -13 5 -14 0 -19 -2 -12 -5z"/>
<path d="M2320 5484 c-30 -22 -31 -25 -10 -19 l25 7 -23 -17 c-12 -9 -27 -13
-34 -9 -6 4 -8 3 -4 -4 3 -5 0 -13 -6 -15 -8 -4 -7 -6 4 -6 31 -2 49 11 69 50
11 22 18 39 17 39 -2 -1 -19 -12 -38 -26z"/>
<path d="M2397 5410 c-4 -16 -12 -29 -19 -28 -8 2 -14 -14 -18 -44 -6 -45 -5
-47 12 -31 15 13 16 19 5 31 -6 9 -7 13 -1 10 10 -7 41 78 32 88 -3 2 -8 -9
-11 -26z"/>
<path d="M2123 5413 c9 -2 23 -2 30 0 6 3 -1 5 -18 5 -16 0 -22 -2 -12 -5z"/>
<path d="M2056 5401 c-4 -5 3 -7 14 -4 23 6 26 13 6 13 -8 0 -17 -4 -20 -9z"/>
<path d="M2280 5398 c-14 -6 -36 -12 -49 -14 -13 -1 -26 -6 -30 -10 -3 -4 6
-4 22 0 16 4 27 2 27 -4 0 -5 -7 -10 -15 -10 -9 0 -12 -6 -9 -15 4 -10 0 -15
-11 -15 -11 0 -15 -5 -12 -14 4 -11 1 -13 -10 -9 -11 4 -14 2 -11 -8 6 -19 49
-23 70 -7 13 10 65 120 55 117 -1 0 -13 -5 -27 -11z"/>
<path d="M1113 5370 c1 -11 5 -20 9 -20 4 0 8 9 8 20 0 11 -4 20 -9 20 -6 0
-9 -9 -8 -20z"/>
<path d="M3017 5351 c-40 -26 -47 -36 -12 -18 42 23 62 37 50 36 -5 0 -22 -8
-38 -18z"/>
<path d="M2109 5313 c-13 -16 -12 -17 4 -4 16 13 21 21 13 21 -2 0 -10 -8 -17
-17z"/>
<path d="M2912 5280 c-28 -21 -54 -45 -58 -52 -4 -7 10 2 32 20 21 17 50 41
64 52 14 10 22 19 18 20 -3 0 -29 -18 -56 -40z"/>
<path d="M1140 5296 c0 -2 7 -7 16 -10 8 -3 12 -2 9 4 -6 10 -25 14 -25 6z"/>
<path d="M2409 5220 c-45 -49 -85 -84 -105 -90 -42 -14 -189 -154 -178 -171 4
-7 3 -10 -4 -6 -13 9 -75 -77 -130 -183 -25 -47 -50 -89 -56 -95 -34 -29 -35
-45 -2 -18 44 36 61 36 29 0 -11 -12 -18 -29 -16 -37 3 -10 2 -11 -4 -3 -6 8
-15 6 -32 -8 -13 -10 -19 -19 -14 -19 5 0 15 6 22 13 10 10 11 9 6 -5 -4 -10
-12 -18 -18 -18 -6 0 -7 -3 -4 -7 4 -3 3 -11 -3 -18 -6 -8 1 -11 27 -10 34 0
36 2 52 55 30 97 97 217 178 317 18 23 32 45 31 50 -8 30 18 73 64 109 29 21
53 37 54 34 1 -3 12 4 24 15 33 29 163 175 157 175 -3 0 -38 -36 -78 -80z"/>
<path d="M1145 5261 c-10 -18 17 -23 33 -7 15 15 15 16 -5 16 -12 0 -24 -4
-28 -9z"/>
<path d="M2160 5250 c-18 -12 -2 -12 25 0 13 6 15 9 5 9 -8 0 -22 -4 -30 -9z"/>
<path d="M1010 5240 c-8 -5 -11 -13 -6 -17 5 -4 11 -2 13 5 3 6 10 9 15 6 7
-4 8 -2 4 4 -9 14 -7 14 -26 2z"/>
<path d="M1914 5228 l-19 -23 23 19 c21 18 27 26 19 26 -2 0 -12 -10 -23 -22z"/>
<path d="M2254 5208 l-19 -23 23 19 c21 18 27 26 19 26 -2 0 -12 -10 -23 -22z"/>
<path d="M1420 5186 c-5 -14 -18 -29 -28 -35 -22 -12 -37 -41 -22 -41 6 0 10
7 10 15 0 8 9 16 20 17 11 0 26 1 33 2 25 2 37 66 12 66 -9 0 -20 -11 -25 -24z"/>
<path d="M1481 5161 c-10 -7 -11 -13 -1 -31 6 -12 13 -20 14 -18 1 1 8 12 16
22 8 11 10 17 3 13 -6 -4 -13 -1 -15 8 -2 9 -8 12 -17 6z"/>
<path d="M1168 5134 c-1 -11 -2 -41 -3 -67 0 -30 -6 -52 -15 -57 -8 -6 -10
-10 -4 -10 6 0 16 -10 21 -23 9 -19 8 -26 -6 -35 -25 -18 54 -6 83 13 12 8 26
12 29 8 4 -3 7 1 7 10 0 19 -16 23 -22 6 -5 -16 -34 0 -47 27 -6 14 -11 47
-11 73 0 31 -5 53 -15 61 -12 10 -15 9 -17 -6z"/>
<path d="M1330 5099 c0 -5 5 -7 10 -4 6 3 10 8 10 11 0 2 -4 4 -10 4 -5 0 -10
-5 -10 -11z"/>
<path d="M2269 5063 l-24 -28 28 24 c25 23 32 31 24 31 -2 0 -14 -12 -28 -27z"/>
<path d="M2216 5003 c-6 -14 -5 -15 5 -6 7 7 10 15 7 18 -3 3 -9 -2 -12 -12z"/>
<path d="M1295 4963 c3 -3 -1 -13 -7 -22 -7 -9 -8 -13 -4 -9 5 4 15 3 22 -3 8
-7 14 -7 19 1 4 6 1 9 -6 8 -7 -2 -13 2 -14 9 0 6 -3 14 -7 17 -5 3 -6 3 -3
-1z"/>
<path d="M1639 4943 c-13 -16 -12 -17 4 -4 9 7 17 15 17 17 0 8 -8 3 -21 -13z"/>
<path d="M2028 4918 c-13 -18 -27 -41 -31 -51 -4 -10 -10 -16 -15 -13 -4 2 -8
-3 -8 -12 0 -9 -8 -42 -17 -72 -10 -30 -13 -50 -8 -45 5 6 16 33 25 61 9 28
32 77 51 108 38 63 39 71 3 24z"/>
<path d="M1216 4923 c-11 -11 -6 -23 9 -23 8 0 15 4 15 9 0 13 -16 22 -24 14z"/>
<path d="M1399 4903 c-13 -16 -12 -17 4 -4 9 7 17 15 17 17 0 8 -8 3 -21 -13z"/>
<path d="M1209 4867 c-15 -11 -14 -14 6 -29 19 -14 24 -15 28 -4 4 9 14 12 26
9 12 -3 21 -1 21 6 0 6 0 14 0 19 0 4 -11 7 -24 7 -14 1 -24 -2 -23 -5 1 -3
-2 -6 -8 -7 -5 -2 -9 2 -7 7 3 13 1 12 -19 -3z"/>
<path d="M1349 4843 c-13 -16 -12 -17 4 -4 9 7 17 15 17 17 0 8 -8 3 -21 -13z"/>
<path d="M1304 4788 l-29 -33 33 29 c17 17 32 31 32 33 0 8 -8 1 -36 -29z"/>
<path d="M1920 4750 c-9 -6 -10 -10 -3 -10 6 0 15 5 18 10 8 12 4 12 -15 0z"/>
<path d="M5521 4724 c0 -11 3 -14 6 -6 3 7 2 16 -1 19 -3 4 -6 -2 -5 -13z"/>
<path d="M1904 4528 c-3 -5 -2 -8 3 -7 24 4 24 -4 -2 -31 -15 -16 -31 -27 -35
-25 -4 2 -7 -3 -7 -11 0 -9 17 2 44 28 24 23 43 45 43 48 0 9 -41 7 -46 -2z"/>
<path d="M0 4460 l0 -30 108 1 c133 0 184 9 187 30 3 19 -66 29 -206 29 l-89
0 0 -30z"/>
<path d="M398 4480 c-14 -9 -68 -90 -68 -104 0 -11 84 -5 120 8 32 12 43 29
20 32 -24 3 -23 7 4 13 27 6 56 34 45 45 -10 10 -65 13 -76 3 -9 -6 -13 -6
-13 2 0 13 -9 14 -32 1z"/>
<path d="M100 4400 c0 -11 75 -9 86 3 4 4 -14 7 -39 7 -26 0 -47 -4 -47 -10z"/>
<path d="M309 4349 c-23 -14 -2 -22 65 -23 45 -1 67 2 70 11 4 9 -8 13 -42 14
-26 0 -54 2 -63 4 -9 1 -22 -1 -30 -6z"/>
<path d="M206 4216 c-41 -52 -85 -98 -98 -102 -13 -3 -42 -20 -65 -37 l-43
-30 0 -69 0 -68 41 22 c22 11 43 27 46 35 3 7 17 20 32 27 54 28 175 160 165
179 -4 7 -4 9 1 5 4 -4 15 1 24 10 9 10 15 16 14 13 -2 -2 2 -10 8 -17 8 -10
5 -19 -10 -35 -13 -14 -19 -32 -17 -50 3 -22 -2 -29 -20 -33 -13 -4 -24 -13
-24 -20 0 -8 -46 -53 -102 -99 -151 -125 -160 -135 -156 -190 l3 -46 186 142
c195 149 349 276 349 289 0 5 -5 8 -11 8 -7 0 -10 12 -7 29 4 27 3 28 -20 20
-34 -13 -39 -12 -46 16 -4 14 -14 25 -24 25 -16 1 -16 1 1 14 21 16 22 42 1
50 -9 3 -47 6 -84 6 l-69 0 -75 -94z"/>
<path d="M1875 4279 c-4 -6 -5 -12 -2 -15 2 -3 7 2 10 11 7 17 1 20 -8 4z"/>
<path d="M1768 4205 c-6 -13 -15 -22 -19 -19 -5 3 -9 -4 -9 -15 0 -11 -5 -31
-12 -45 -9 -22 -14 -24 -26 -13 -11 8 -14 8 -9 0 4 -6 2 -15 -3 -18 -7 -4 -9
-20 -5 -38 5 -24 4 -28 -4 -17 -9 12 -11 11 -12 -7 -2 -27 -3 -31 -16 -63 -6
-14 -14 -44 -18 -68 -4 -23 -11 -40 -16 -36 -5 3 -9 -2 -9 -10 0 -44 20 -14
48 74 18 54 55 144 82 199 27 56 47 101 44 101 -2 0 -9 -11 -16 -25z m-67
-132 c-12 -20 -14 -14 -5 12 4 9 9 14 11 11 3 -2 0 -13 -6 -23z"/>
<path d="M1762 4132 c-24 -51 -41 -100 -38 -108 3 -8 2 -13 -3 -9 -5 3 -22
-30 -39 -72 -55 -147 -55 -148 -36 -205 l17 -51 17 23 c17 22 18 23 23 4 3
-11 5 -3 6 17 2 79 94 380 149 489 1 3 -10 5 -25 5 -24 0 -31 -10 -71 -93z"/>
<path d="M1856 4017 c-13 -29 -38 -84 -55 -122 l-31 -70 32 39 c27 33 96 206
81 206 -2 0 -15 -24 -27 -53z"/>
<path d="M1950 3989 c-147 -289 -209 -514 -171 -614 21 -54 29 -64 24 -27 -5
28 87 304 126 381 37 72 42 89 24 87 -8 -2 -22 -13 -30 -27 l-14 -24 7 25 c6
25 6 25 -11 5 -16 -19 -16 -19 -11 14 3 18 26 80 50 137 24 57 42 104 40 104
-2 0 -18 -27 -34 -61z"/>
<path d="M2131 3845 c-12 -31 -21 -58 -21 -61 0 -3 -27 -74 -59 -157 -70 -178
-113 -311 -137 -421 -15 -72 -18 -77 -29 -56 -9 17 -14 20 -19 9 -3 -8 -4 -2
-1 12 2 14 -2 34 -10 45 -15 19 -15 19 -8 0 4 -12 3 -17 -4 -13 -6 4 -6 -6 1
-29 6 -19 16 -32 22 -30 14 5 54 -64 54 -92 0 -11 6 -24 13 -30 9 -8 11 -1 8
34 -2 27 1 44 8 44 7 0 11 -22 11 -58 0 -32 6 -66 13 -76 12 -16 16 -10 41 58
16 42 32 79 37 82 5 3 9 69 9 147 0 201 29 408 80 576 24 81 19 91 -9 16z"/>
<path d="M1687 3654 c-3 -15 1 -43 9 -63 13 -35 13 -35 7 24 -7 70 -9 75 -16
39z"/>
<path d="M1711 3624 c0 -11 3 -14 6 -6 3 7 2 16 -1 19 -3 4 -6 -2 -5 -13z"/>
<path d="M2707 3333 c-12 -12 -7 -22 8 -17 8 4 15 10 15 15 0 11 -14 12 -23 2z"/>
<path d="M1762 3308 c-13 -13 -15 -38 -6 -62 8 -21 24 -21 24 0 0 8 4 12 10 9
7 -4 7 2 1 18 -6 14 -7 27 -5 30 3 3 1 8 -4 11 -5 3 -14 0 -20 -6z"/>
<path d="M2845 3240 c-3 -5 -1 -10 4 -10 6 0 11 5 11 10 0 6 -2 10 -4 10 -3 0
-8 -4 -11 -10z"/>
<path d="M2313 3035 c0 -38 2 -53 4 -32 2 20 2 52 0 70 -2 17 -4 1 -4 -38z"/>
<path d="M66 2960 c41 -45 45 -61 17 -88 -7 -8 -10 -18 -7 -24 4 -7 2 -8 -5
-4 -6 4 -9 12 -6 17 4 5 1 9 -5 9 -6 0 -9 4 -6 9 3 5 -1 14 -10 21 -8 7 -13
19 -10 26 4 10 -13 24 -30 24 -2 0 -4 -17 -4 -37 0 -29 8 -45 37 -75 l36 -37
18 39 c10 22 18 43 18 47 -1 3 4 9 10 12 6 4 -11 27 -42 57 l-52 49 41 -45z"/>
<path d="M5302 2950 c0 -14 2 -19 5 -12 2 6 2 18 0 25 -3 6 -5 1 -5 -13z"/>
<path d="M183 2833 c0 -22 16 -45 27 -38 11 7 102 -104 94 -116 -9 -16 -37
-10 -30 6 3 8 1 14 -4 12 -5 -1 -15 6 -22 16 -13 18 -15 18 -38 -1 l-23 -19
33 -29 c18 -16 37 -28 42 -26 5 1 7 -2 4 -7 -3 -5 1 -14 9 -21 12 -10 17 -6
32 24 9 20 20 36 25 36 23 0 0 33 -70 103 -55 54 -79 73 -79 60z"/>
<path d="M2120 2813 c0 -4 5 -15 10 -23 8 -13 10 -13 10 2 0 9 -4 20 -10 23
-5 3 -10 3 -10 -2z"/>
<path d="M2142 2755 c0 -11 4 -33 8 -50 7 -27 8 -27 8 -5 0 14 -4 36 -8 50 -6
20 -8 21 -8 5z"/>
<path d="M140 2736 c0 -2 7 -9 15 -16 13 -11 14 -10 9 4 -5 14 -24 23 -24 12z"/>
<path d="M2333 2669 c-7 -13 -21 -38 -33 -55 l-20 -31 44 10 44 10 -10 36 c-5
20 -10 40 -11 45 -2 4 -8 -2 -14 -15z"/>
<path d="M2161 2654 c0 -11 3 -14 6 -6 3 7 2 16 -1 19 -3 4 -6 -2 -5 -13z"/>
<path d="M2780 2520 c-9 -6 -10 -10 -3 -10 6 0 15 5 18 10 8 12 4 12 -15 0z"/>
<path d="M2730 2500 c-8 -5 -10 -10 -5 -10 6 0 17 5 25 10 8 5 11 10 5 10 -5
0 -17 -5 -25 -10z"/>
<path d="M5187 2475 c-9 -19 -15 -35 -12 -35 7 0 37 61 33 66 -3 2 -12 -12
-21 -31z"/>
<path d="M4723 2483 c9 -2 23 -2 30 0 6 3 -1 5 -18 5 -16 0 -22 -2 -12 -5z"/>
<path d="M2660 2470 c-8 -5 -10 -10 -5 -10 6 0 17 5 25 10 8 5 11 10 5 10 -5
0 -17 -5 -25 -10z"/>
<path d="M4780 2476 c0 -2 7 -7 16 -10 8 -3 12 -2 9 4 -6 10 -25 14 -25 6z"/>
<path d="M5125 2459 c-4 -6 -5 -12 -2 -15 2 -3 7 2 10 11 7 17 1 20 -8 4z"/>
<path d="M2622 2451 c-11 -7 -11 -9 0 -14 9 -3 15 1 15 9 0 8 -1 14 -1 14 -1
0 -7 -4 -14 -9z"/>
<path d="M4835 2430 c10 -11 20 -20 23 -20 3 0 -3 9 -13 20 -10 11 -20 20 -23
20 -3 0 3 -9 13 -20z"/>
<path d="M470 2437 c0 -2 14 -16 30 -32 17 -16 30 -24 30 -19 0 6 -13 20 -30
32 -16 13 -30 21 -30 19z"/>
<path d="M3310 2288 c0 -7 4 -19 9 -27 8 -12 12 -12 25 -2 15 12 15 15 -1 27
-23 17 -33 17 -33 2z"/>
<path d="M188 2273 c7 -3 16 -2 19 1 4 3 -2 6 -13 5 -11 0 -14 -3 -6 -6z"/>
<path d="M2421 2160 c9 -14 28 -46 43 -72 15 -27 30 -48 33 -48 3 0 -5 16 -16
36 -12 19 -20 39 -18 42 1 4 -11 21 -27 37 -26 26 -28 27 -15 5z"/>
<path d="M3464 1939 c-3 -6 -1 -16 5 -22 8 -8 11 -5 11 11 0 24 -5 28 -16 11z"/>
<path d="M3271 1886 c-6 -25 -8 -52 -5 -61 4 -9 3 -15 -2 -14 -20 3 -28 -2
-15 -10 11 -7 11 -20 2 -73 -19 -110 -10 -109 14 2 12 58 20 111 17 118 -2 7
-1 12 4 10 5 -1 25 8 44 21 32 21 33 22 8 17 -14 -3 -34 -9 -43 -12 -13 -5
-15 -2 -9 20 3 14 4 26 1 26 -2 0 -10 -20 -16 -44z"/>
<path d="M5380 1826 c0 -2 8 -10 18 -17 15 -13 16 -12 3 4 -13 16 -21 21 -21
13z"/>
<path d="M2377 1804 c3 -8 12 -13 19 -10 8 3 14 0 14 -6 0 -6 3 -8 6 -5 9 9
-15 37 -32 37 -8 0 -11 -6 -7 -16z"/>
<path d="M5430 1787 c0 -2 15 -16 33 -33 l32 -29 -29 33 c-28 30 -36 37 -36
29z"/>
<path d="M2427 1734 c6 -15 23 -19 23 -5 0 5 -7 11 -14 14 -10 4 -13 1 -9 -9z"/>
<path d="M2495 1630 c3 -5 11 -10 16 -10 6 0 7 5 4 10 -3 6 -11 10 -16 10 -6
0 -7 -4 -4 -10z"/>
<path d="M3256 1605 c-12 -12 -16 -13 -17 -3 -1 16 -38 -142 -38 -162 0 -10 4
-8 9 5 8 19 9 19 9 1 1 -11 3 -17 6 -14 8 7 55 181 51 186 -2 1 -11 -4 -20
-13z"/>
<path d="M2028 1398 c5 -5 16 -8 23 -6 8 3 3 7 -10 11 -17 4 -21 3 -13 -5z"/>
<path d="M960 1366 c0 -2 8 -10 18 -17 15 -13 16 -12 3 4 -13 16 -21 21 -21
13z"/>
<path d="M2720 1290 c-14 -4 -18 -8 -10 -9 8 -1 20 -11 25 -23 6 -13 19 -23
30 -23 15 0 21 8 23 33 3 28 0 32 -20 31 -13 -1 -34 -5 -48 -9z m50 -29 c0 -6
-4 -13 -10 -16 -5 -3 -10 1 -10 9 0 9 5 16 10 16 6 0 10 -4 10 -9z"/>
<path d="M842 1188 c42 -64 81 -142 103 -207 24 -72 63 -146 72 -137 3 2 -2
15 -11 28 -8 13 -31 65 -50 116 -30 80 -108 222 -123 222 -3 0 1 -10 9 -22z"/>
<path d="M4415 1150 c3 -5 8 -10 11 -10 2 0 4 5 4 10 0 6 -5 10 -11 10 -5 0
-7 -4 -4 -10z"/>
<path d="M4370 1140 c-12 -8 -11 -10 8 -10 12 0 22 5 22 10 0 13 -11 13 -30 0z"/>
<path d="M5892 1125 c6 -14 13 -23 16 -21 7 7 -9 46 -18 46 -5 0 -4 -11 2 -25z"/>
<path d="M796 1090 c2 -27 -1 -52 -6 -55 -4 -3 -6 -15 -2 -27 4 -18 2 -20 -16
-16 -13 4 -22 1 -22 -5 0 -6 -3 -7 -6 -4 -4 4 -1 13 6 22 21 25 -2 17 -31 -11
-30 -29 -102 -40 -105 -16 -1 6 -3 24 -4 40 l-2 27 -7 -29 -6 -29 -49 49 -49
49 49 -60 c27 -33 41 -54 32 -46 -22 17 -43 3 -52 -35 -4 -14 -11 -22 -16 -19
-6 3 -10 -4 -11 -17 -1 -19 -3 -17 -11 10 -6 17 -15 32 -19 32 -5 0 -4 -12 1
-26 6 -14 10 -58 10 -97 0 -66 -3 -76 -30 -109 -48 -58 -76 -58 -159 1 -39 28
-71 47 -71 42 0 -5 11 -16 24 -25 17 -11 23 -22 19 -36 -3 -12 0 -20 8 -20 7
0 10 -3 7 -6 -4 -3 -16 -1 -27 6 -20 10 -21 9 -17 -14 4 -21 -1 -27 -30 -36
-32 -11 -35 -15 -30 -43 5 -29 5 -29 -4 -7 -5 14 -16 51 -25 83 -9 32 -18 57
-20 55 -2 -2 5 -47 16 -102 11 -54 18 -103 15 -110 -2 -6 -5 -1 -5 11 -2 42
-18 31 -17 -12 1 -23 -2 -41 -5 -39 -3 2 -16 -11 -29 -29 -22 -30 -22 -31 -2
-13 12 11 22 14 22 8 0 -14 -35 -34 -44 -25 -3 3 -15 -2 -27 -13 -20 -18 -21
-18 -36 1 -16 20 -16 20 -8 0 4 -11 7 -27 6 -35 -1 -8 -4 -45 -7 -82 -6 -65
-5 -67 19 -73 14 -4 34 -5 44 -3 12 2 45 -18 86 -52 36 -30 66 -57 66 -60 1
-3 -14 -23 -33 -45 -34 -38 -41 -60 -13 -37 8 7 17 8 21 4 4 -4 6 0 4 8 -2 8
3 14 10 12 8 -1 11 2 6 9 -5 9 -2 10 9 6 9 -3 19 -2 23 4 4 7 10 6 19 -1 9 -8
15 -8 20 0 3 5 14 10 23 10 15 -1 15 -2 2 -13 -8 -7 -21 -20 -28 -29 -12 -15
-9 -17 38 -16 28 0 49 2 47 5 -3 2 2 13 11 22 9 10 24 27 32 39 18 27 26 28
35 5 4 -13 -3 -26 -27 -46 -25 -22 -28 -28 -13 -25 25 4 95 104 95 136 0 22
-3 24 -34 19 -40 -6 -56 6 -56 44 0 21 11 34 53 63 60 41 72 44 87 17 8 -17 3
-25 -39 -55 -54 -40 -93 -80 -55 -56 25 15 52 8 61 -17 4 -10 13 -24 20 -31
16 -16 17 -37 2 -65 -12 -22 -12 -22 9 -3 18 15 24 16 37 6 8 -7 12 -16 9 -22
-3 -5 0 -15 6 -23 10 -12 46 -15 181 -15 93 0 169 4 169 8 0 5 -8 16 -18 25
-27 24 -63 102 -56 120 3 8 13 17 23 20 10 2 21 17 24 33 3 16 12 37 19 46 12
15 21 7 87 -83 l75 -99 31 30 c34 33 45 37 45 17 0 -17 -42 -57 -59 -57 -8 0
-3 -11 11 -29 l23 -29 158 -1 157 0 -21 29 c-12 15 -29 30 -38 33 -23 6 -171
183 -171 204 0 9 -8 26 -17 37 -14 16 -14 18 -3 11 9 -6 5 -1 -7 11 -21 18
-22 24 -13 48 15 41 12 56 -14 66 -14 5 -30 19 -36 32 l-11 23 20 -23 c11 -13
25 -21 30 -18 5 4 11 1 13 -6 3 -9 6 -9 12 0 4 7 2 12 -3 12 -6 0 -11 5 -11
12 0 6 11 1 26 -12 21 -21 27 -22 34 -10 17 27 11 45 -28 75 -20 16 -30 21
-23 11 13 -16 13 -17 -1 -14 -9 1 -17 -1 -17 -7 -1 -5 3 -10 8 -10 5 0 13 -4
18 -9 5 -5 3 -6 -4 -2 -8 4 -13 2 -13 -5 0 -8 -5 -8 -17 2 -15 11 -16 11 -5
-1 20 -23 14 -35 -8 -15 -28 25 -51 27 -57 5 -3 -10 -16 -20 -29 -23 -31 -6
-30 2 1 28 24 18 25 22 11 40 -14 19 -16 19 -43 3 -61 -38 -117 -60 -142 -56
-15 2 -33 -1 -39 -8 -6 -7 -17 -14 -24 -16 -9 -3 -7 -11 7 -30 11 -13 26 -23
33 -20 6 2 12 -3 12 -11 0 -9 3 -17 8 -19 4 -1 17 -16 29 -32 18 -22 20 -32
12 -47 -5 -11 -14 -17 -20 -14 -5 4 -6 12 -3 18 4 7 3 9 -1 4 -5 -4 -17 1 -29
10 -12 12 -9 4 9 -22 l29 -40 -31 29 c-19 17 -36 25 -44 21 -8 -5 -10 -4 -5 3
16 25 -14 10 -33 -17 -32 -44 -71 -65 -125 -66 -48 -1 -49 -1 -26 14 13 9 33
24 44 34 l21 18 -21 -10 c-29 -14 -37 -2 -19 26 15 22 14 25 -7 46 -23 23
-126 152 -159 198 -16 22 -17 23 -42 6 -32 -21 -37 -21 -37 -2 0 19 -46 49
-65 41 -33 -12 -12 5 33 28 45 23 78 53 114 105 l17 24 10 -25 c5 -14 15 -29
20 -33 17 -10 13 -40 -10 -69 l-20 -26 25 -33 c38 -50 31 -58 -10 -12 -20 22
-31 31 -26 20 12 -23 62 -72 62 -61 0 13 30 -15 42 -38 11 -21 11 -21 -13 -1
-13 10 -4 -1 21 -27 33 -33 48 -43 58 -35 7 5 15 7 19 4 9 -10 -18 -38 -30
-30 -6 3 -7 1 -3 -5 4 -6 21 -8 42 -5 27 4 38 1 48 -12 13 -18 14 -18 25 4 20
36 10 66 -21 66 -20 -1 -24 2 -17 12 6 6 8 20 5 30 -3 13 9 29 45 58 46 36
104 75 137 91 25 12 25 -6 0 -25 -30 -24 -58 -79 -51 -98 7 -19 30 -16 74 9
45 25 50 38 15 38 -13 0 -26 6 -29 14 -7 18 16 39 29 26 5 -5 15 -5 23 -1 10
6 1 25 -37 78 -56 78 -86 132 -79 140 7 6 54 -46 90 -99 15 -23 27 -37 27 -32
0 14 95 64 122 64 16 0 30 -10 41 -29 9 -16 25 -28 34 -27 11 0 26 -16 42 -44
21 -39 22 -43 5 -30 -18 14 -19 14 -1 -6 14 -17 16 -27 7 -48 -9 -24 -8 -26 8
-17 9 5 28 21 41 35 21 23 33 26 88 26 80 0 133 -20 134 -52 4 -86 -14 -113
-95 -143 -32 -11 -44 -20 -35 -25 7 -5 18 -2 26 6 8 8 23 14 34 14 11 0 35 15
54 33 26 24 35 41 37 69 2 30 5 35 15 26 8 -6 11 -13 8 -16 -2 -3 2 -10 9 -16
12 -9 9 -27 -19 -111 -19 -55 -34 -109 -34 -120 0 -11 2 -15 4 -10 2 6 18 56
35 113 30 95 34 102 59 103 20 1 22 2 6 6 -41 10 -38 23 5 24 25 0 39 3 33 6
-7 2 -13 10 -13 18 0 7 -12 15 -27 18 -23 5 -31 15 -46 56 -10 29 -24 51 -32
51 -8 0 -22 11 -31 25 -16 24 -18 25 -35 9 -18 -16 -19 -16 -19 8 0 24 -6 27
-109 53 -103 25 -139 27 -126 4 4 -5 -5 -9 -19 -9 -14 0 -26 4 -26 9 0 25 24
70 43 79 38 19 -5 14 -78 -9 -62 -19 -68 -19 -93 -4 l-27 16 24 -21 c26 -22
26 -22 -5 -38 -16 -9 -21 -8 -21 3 0 8 5 11 11 8 6 -3 -2 8 -18 25 -16 17 -34
28 -40 25 -6 -3 -8 -3 -4 2 9 10 -23 65 -37 64 -32 -4 -47 2 -41 16 15 38 16
47 1 21 -22 -37 -66 -86 -77 -86 -5 0 -17 -7 -26 -16 -15 -15 -18 -14 -44 15
-23 25 -32 30 -58 25 -20 -4 -30 -3 -30 5 0 7 4 10 8 7 5 -3 35 23 67 57 91
97 120 107 154 55 11 -18 21 -28 21 -22 0 6 -10 24 -22 39 -18 23 -26 26 -60
22 l-38 -5 0 46 c0 26 -4 53 -8 59 -4 7 -7 -10 -6 -37z m387 -310 c-3 -11 -9
-20 -13 -20 -5 0 -6 9 -3 20 3 11 9 20 13 20 5 0 6 -9 3 -20z m17 -70 c0 -5
-2 -10 -4 -10 -3 0 -8 5 -11 10 -3 6 -1 10 4 10 6 0 11 -4 11 -10z m-890 -21
l25 -20 -32 16 c-18 8 -33 18 -33 20 0 10 16 4 40 -16z m155 11 c-9 -14 8 -12
24 3 11 10 12 9 6 -3 -15 -29 -49 -60 -64 -60 -14 0 -14 2 -1 10 8 5 11 12 7
16 -4 4 0 16 10 26 17 19 28 24 18 8z m-231 -221 c-3 -5 -18 -9 -35 -9 -26 0
-29 4 -29 30 l0 29 35 -20 c19 -12 32 -25 29 -30z m16 -44 c13 -14 18 -25 12
-25 -6 0 -9 -7 -6 -15 10 -24 -2 -17 -22 13 -15 23 -15 25 -1 13 9 -7 17 -9
17 -3 0 5 -6 15 -14 21 -24 20 -26 -10 -3 -47 19 -33 19 -34 0 -60 -22 -30
-24 -25 50 -107 20 -23 37 -45 37 -49 0 -3 9 -15 20 -26 11 -11 20 -28 20 -37
0 -9 7 -25 17 -35 9 -10 14 -20 11 -23 -8 -9 -38 6 -38 19 0 6 -9 17 -19 23
-10 7 -45 52 -77 100 -32 48 -59 89 -60 91 -1 2 -14 -4 -29 -14 -26 -17 -27
-17 -56 14 -18 19 -35 29 -44 26 -27 -11 -15 5 16 22 42 21 119 93 119 110 0
22 24 16 50 -11z m-96 -19 c-6 -26 -49 -64 -59 -54 -3 3 9 24 26 47 33 47 44
48 33 7z m887 21 c-16 -20 -85 -40 -110 -32 -33 10 -25 21 13 17 19 -2 46 3
62 12 36 19 50 20 35 3z m108 -21 c-3 -3 -11 5 -18 17 -13 21 -12 21 5 5 10
-10 16 -20 13 -22z m-499 -86 c0 -5 -7 -10 -16 -10 -8 0 -12 5 -9 10 3 6 10
10 16 10 5 0 9 -4 9 -10z m20 -30 c0 -5 -4 -10 -10 -10 -5 0 -10 5 -10 10 0 6
5 10 10 10 6 0 10 -4 10 -10z m419 -34 c-3 -3 -11 5 -18 17 -13 21 -12 21 5 5
10 -10 16 -20 13 -22z m-985 8 c5 -14 4 -15 -9 -4 -17 14 -19 20 -6 20 5 0 12
-7 15 -16z m484 -14 c-14 -42 -6 -59 28 -52 19 3 25 1 20 -7 -11 -17 -73 -14
-80 4 -7 18 2 44 22 68 21 24 23 22 10 -13z m283 -26 l34 -35 -37 -34 c-23
-21 -43 -32 -53 -29 -11 5 -14 2 -9 -10 10 -27 -3 -18 -35 23 l-32 40 43 40
c24 22 45 41 49 41 3 0 21 -16 40 -36z m-212 -57 c6 -8 7 -17 3 -21 -4 -4 -1
-6 7 -4 24 5 23 -19 -1 -26 -36 -9 -48 -7 -48 8 0 8 -7 16 -15 20 -22 8 -18
24 8 29 12 2 25 5 28 6 4 0 12 -5 18 -12z m571 -69 c0 -5 -7 -8 -15 -8 -8 0
-15 6 -15 14 0 8 -3 23 -6 33 -4 13 0 11 15 -7 11 -14 21 -28 21 -32z m24 -17
c3 -5 0 -14 -8 -20 -10 -9 -15 -8 -19 3 -9 22 15 37 27 17z m-84 -56 c-7 -8
-17 -12 -22 -9 -6 4 -5 10 3 15 22 14 33 10 19 -6z"/>
<path d="M771 201 c-11 -7 -10 -14 5 -36 10 -15 20 -22 22 -16 3 9 8 9 20 -1
9 -7 6 2 -8 22 -13 19 -24 36 -25 37 0 1 -7 -2 -14 -6z m29 -32 c0 -6 -4 -7
-10 -4 -5 3 -10 11 -10 16 0 6 5 7 10 4 6 -3 10 -11 10 -16z"/>
<path d="M2933 1123 c-47 -5 -56 -17 -20 -28 13 -4 17 -8 10 -12 -26 -10 -11
-23 27 -23 39 0 40 1 40 35 0 19 -3 34 -7 33 -5 -1 -27 -3 -50 -5z"/>
<path d="M694 1009 c-3 -6 -20 -17 -38 -25 -17 -7 -24 -13 -16 -14 16 0 80 36
80 45 0 9 -19 5 -26 -6z"/>
<path d="M941 904 c0 -11 3 -14 6 -6 3 7 2 16 -1 19 -3 4 -6 -2 -5 -13z"/>
<path d="M2890 913 c0 -5 21 -9 48 -10 37 -1 41 0 22 7 -33 11 -70 12 -70 3z"/>
<path d="M786 881 c-3 -4 1 -17 9 -27 15 -18 15 -18 8 1 -6 18 -5 19 13 5 19
-14 19 -14 0 8 -21 25 -23 25 -30 13z"/>
<path d="M770 850 c6 -11 13 -20 16 -20 2 0 0 9 -6 20 -6 11 -13 20 -16 20 -2
0 0 -9 6 -20z"/>
<path d="M2462 850 c-15 -25 -15 -30 2 -30 7 0 16 11 18 25 6 30 -3 32 -20 5z"/>
<path d="M130 836 c0 -2 8 -10 18 -17 15 -13 16 -12 3 4 -13 16 -21 21 -21 13z"/>
<path d="M1278 833 c6 -2 18 -2 25 0 6 3 1 5 -13 5 -14 0 -19 -2 -12 -5z"/>
<path d="M180 796 c0 -2 8 -10 18 -17 15 -13 16 -12 3 4 -13 16 -21 21 -21 13z"/>
<path d="M4710 765 c-7 -9 -10 -18 -7 -21 3 -3 10 4 17 15 13 25 8 27 -10 6z"/>
<path d="M1095 685 c-53 -25 -70 -42 -56 -59 7 -8 10 -21 6 -28 -4 -7 1 -4 9
6 11 14 13 22 5 27 -8 4 -5 10 7 17 15 8 24 6 43 -11 13 -12 21 -16 17 -9 -5
8 -1 18 10 26 10 8 15 20 11 30 -8 19 -13 19 -52 1z"/>
<path d="M1046 555 c-11 -8 -16 -15 -10 -15 5 0 18 7 28 15 11 8 16 15 10 15
-5 0 -18 -7 -28 -15z"/>
<path d="M4671 443 c-10 -26 -10 -27 4 -9 8 11 15 23 15 28 0 15 -7 8 -19 -19z"/>
<path d="M4710 450 c0 -17 17 -47 23 -40 2 3 -2 16 -10 30 -7 14 -13 18 -13
10z"/>
<path d="M4730 456 c0 -2 7 -9 15 -16 13 -11 14 -10 9 4 -5 14 -24 23 -24 12z"/>
<path d="M1753 443 c9 -2 23 -2 30 0 6 3 -1 5 -18 5 -16 0 -22 -2 -12 -5z"/>
<path d="M3375 441 c-7 -12 33 -51 52 -51 11 0 11 5 3 20 -13 25 -47 44 -55
31z"/>
<path d="M1370 360 c-9 -6 -10 -10 -3 -10 6 0 15 5 18 10 8 12 4 12 -15 0z"/>
<path d="M716 337 c3 -10 9 -15 12 -12 3 3 0 11 -7 18 -10 9 -11 8 -5 -6z"/>
<path d="M1430 346 c0 -2 8 -10 18 -17 15 -13 16 -12 3 4 -13 16 -21 21 -21
13z"/>
<path d="M3496 251 c-13 -15 -14 -22 -3 -44 6 -14 21 -28 31 -29 13 -2 33 -28
58 -77 47 -93 57 -103 98 -99 l32 3 -66 92 c-36 51 -66 98 -66 105 0 21 -27
55 -49 61 -12 3 -26 -2 -35 -12z"/>
<path d="M3318 175 c-100 -35 -102 -37 -79 -62 11 -11 17 -24 14 -27 -4 -3 5
-6 20 -6 18 0 33 -10 48 -33 13 -17 28 -35 34 -39 12 -9 185 -11 185 -2 0 4
-28 34 -61 67 -49 48 -58 62 -46 68 12 7 13 14 4 34 -15 31 -33 31 -119 0z"/>
<path d="M5571 193 c-1 -7 -9 -13 -19 -13 -10 0 -23 -5 -29 -11 -6 -6 -31 -11
-57 -12 -25 -1 -46 -5 -46 -9 0 -5 -13 -8 -29 -8 -20 0 -34 -8 -46 -26 -9 -14
-19 -23 -22 -20 -4 3 -12 1 -20 -5 -10 -9 -13 -6 -13 14 0 28 -13 33 -109 42
-30 3 -60 10 -65 14 -6 5 -13 10 -16 12 -7 3 -80 -63 -80 -73 0 -18 -46 -78
-59 -78 -8 0 -29 11 -47 25 -28 21 -45 25 -117 27 -69 3 -83 6 -80 18 2 8 -3
2 -12 -13 -9 -16 -15 -38 -13 -50 l3 -22 483 0 483 0 3 70 c4 78 -2 118 -15
109 -5 -2 -17 0 -28 5 -16 9 -18 8 -14 -10 7 -27 -20 -21 -29 6 -3 11 -6 14
-7 8z"/>
<path d="M2 59 c-1 -35 2 -49 9 -42 13 13 15 71 2 84 -6 6 -10 -8 -11 -42z"/>
<path d="M574 52 c4 -7 3 -12 -1 -12 -5 0 -9 -9 -10 -20 -1 -14 4 -20 18 -20
11 0 17 5 14 10 -4 6 -11 7 -17 4 -6 -4 -6 1 1 14 8 15 8 23 -1 28 -7 4 -8 3
-4 -4z"/>
<path d="M5972 25 c0 -17 2 -22 5 -12 2 9 2 23 0 30 -3 6 -5 -1 -5 -18z"/>
<path d="M1059 13 c-13 -16 -12 -17 4 -4 9 7 17 15 17 17 0 8 -8 3 -21 -13z"/>
<path d="M1524 15 c-18 -14 -18 -14 11 -15 21 0 26 3 16 9 -11 7 -10 10 5 14
13 3 14 5 3 6 -8 0 -24 -6 -35 -14z"/>
<path d="M3821 14 c9 -9 25 -14 35 -12 14 3 10 7 -16 16 -32 12 -34 11 -19 -4z"/>
<path d="M1707 8 c2 -5 25 -8 51 -8 35 1 43 3 30 10 -19 11 -89 9 -81 -2z"/>
</g>
</svg>
